<svg width="400" height="403" viewBox="0 0 400 403" fill="none" xmlns="http://www.w3.org/2000/svg">
<path d="M169.507 322.379C193.907 370.537 227.089 375.652 236.873 376.139V376.178C236.873 376.178 236.588 376.202 237.318 376.186C238.048 376.202 237.762 376.178 237.762 376.178V376.139C246.657 375.739 269.752 372.177 291.65 343.838C296.271 337.859 300.853 330.774 305.106 322.379C333.453 266.437 312.841 237.627 312.841 237.627L237.762 237.447V237.439L237.318 237.447L236.873 237.439V237.447L204.884 237.525L161.668 237.627C161.668 237.627 141.159 266.437 169.507 322.379Z" fill="url(#paint0_linear_261_8754)"/>
<path d="M237.204 248.447C195.104 248.447 160.975 244.124 160.975 238.792C160.975 233.46 195.104 229.137 237.204 229.137C279.305 229.137 313.434 233.46 313.434 238.792C313.434 244.124 279.305 248.447 237.204 248.447Z" fill="url(#paint1_linear_261_8754)"/>
<path opacity="0.3" d="M304.501 322.112C279.864 370.221 246.361 375.331 236.482 375.817V375.857C236.482 375.857 236.769 375.88 236.032 375.864C235.296 375.88 235.584 375.857 235.584 375.857V375.817C226.602 375.418 203.284 371.859 181.174 343.549C181.301 317.48 242.434 299.766 261.534 287.68C279.949 276.032 276.661 248.288 274.055 235.75C273.43 232.745 275.951 229.853 278.994 230.248L299.452 232.905C304.077 233.506 308.529 235.052 312.531 237.447C312.531 237.447 333.123 266.227 304.501 322.112Z" fill="#F9F9F9" fill-opacity="0.41"/>
<path d="M353.182 153.972C331.229 153.972 313.432 131.2 313.432 103.109C313.432 75.0174 331.229 52.2451 353.182 52.2451C375.136 52.2451 392.933 75.0174 392.933 103.109C392.933 131.2 375.136 153.972 353.182 153.972Z" fill="url(#paint2_linear_261_8754)"/>
<path d="M102.14 114.566C102.14 177.844 164.743 229.132 241.963 229.132C253.825 229.132 265.335 227.924 276.335 225.641C336.938 213.095 381.785 168.123 381.785 114.566C381.785 51.2965 319.183 0 241.963 0C220.269 0 199.728 4.04835 181.4 11.2744C134.505 29.7673 102.14 69.0751 102.14 114.566Z" fill="url(#paint3_linear_261_8754)"/>
<path d="M335.335 166.862L227.527 176.271C203.695 178.351 183.135 159.708 182.302 134.367L181.412 107.327C181.03 95.6962 189.935 85.9948 201.153 85.7056L354.839 81.7421C363.764 81.512 370.914 89.624 370.914 99.8255V123.561C370.914 145.83 355.215 165.127 335.335 166.862Z" fill="#F4F7FA"/>
<path d="M337.923 151.402L222.567 159.893C205.53 161.147 190.975 147.681 190.409 129.688L190.034 117.745C189.671 106.206 198.479 96.5397 209.56 96.2008L347.081 91.9968C356.098 91.7212 363.332 99.8249 363.345 110.061L363.359 120.66C363.38 136.638 352.11 150.357 337.923 151.402Z" fill="url(#paint4_linear_261_8754)"/>
<path d="M271.999 135.228C273.084 133.444 272.035 137.311 271.999 135.228C271.882 128.475 265.114 123.326 256.797 123.746C248.384 124.17 241.618 130.119 241.773 137.012C241.821 139.138 240.575 135.337 241.773 137.012L249.265 134.014C254.151 132.059 259.543 131.764 264.613 133.174L271.999 135.228Z" fill="#D8DEE8"/>
<path d="M342.883 131.045C343.883 129.35 342.892 133.027 342.883 131.045C342.851 124.62 336.796 119.705 329.283 120.085C321.69 120.468 315.524 126.104 315.587 132.655C315.606 134.676 314.526 131.06 315.587 132.655L321.853 130.297C326.688 128.477 331.967 128.199 336.966 129.502L342.883 131.045Z" fill="#D8DEE8"/>
<path d="M121.223 173.918C99.2698 173.918 81.4729 151.146 81.4729 123.055C81.4729 94.9635 99.2698 72.1912 121.223 72.1912C143.177 72.1912 160.974 94.9635 160.974 123.055C160.974 151.146 143.177 173.918 121.223 173.918Z" fill="url(#paint5_linear_261_8754)"/>
<path d="M151.686 251.599C152.503 259.183 147.001 281.038 139.417 281.855L76.933 273.541L73.975 246.075L136.474 239.344C144.059 238.528 150.869 244.014 151.686 251.599Z" fill="url(#paint6_linear_261_8754)"/>
<path d="M27.5196 208.156C32.8307 203.856 40.6218 204.676 44.9218 209.987L80.3555 253.75L61.1229 269.322L25.6892 225.558C21.3892 220.248 22.2087 212.456 27.5196 208.156Z" fill="url(#paint7_linear_261_8754)"/>
<path d="M71.1526 275.828C61.1911 275.828 53.1157 267.753 53.1157 257.791C53.1157 247.83 61.1911 239.755 71.1526 239.755C81.1141 239.755 89.1895 247.83 89.1895 257.791C89.1895 267.753 81.1141 275.828 71.1526 275.828Z" fill="url(#paint8_linear_261_8754)"/>
<path d="M27.0188 187.634L35.4092 181.595C35.4092 181.595 38.2459 190.271 37.3063 192.619C36.3668 194.968 27.442 202.953 27.442 202.953C27.442 202.953 28.1779 196.21 26.0675 190.968C25.5837 189.766 25.967 188.391 27.0188 187.634Z" fill="url(#paint9_linear_261_8754)"/>
<path d="M35.4089 181.595C34.6372 181.595 34.0869 182.346 34.3262 183.079C35.5866 186.945 37.8907 197.179 27.9116 199.431C18.6099 201.529 14.7036 196.368 11.4548 188.398C10.9825 187.239 9.62884 186.718 8.49893 187.256L1.2484 190.707C0.0383148 191.283 -0.377754 192.807 0.383503 193.91C3.78239 198.834 13.3222 210.122 26.7372 205.537C43.1202 199.938 37.8959 185.56 36.449 182.272C36.2675 181.859 35.8601 181.595 35.4089 181.595Z" fill="url(#paint10_linear_261_8754)"/>
<path d="M390.92 268.781L347.025 242.031C340.844 238.265 332.808 239.872 328.551 245.725C323.705 252.387 325.684 261.778 332.806 265.918L377.334 291.802L390.92 268.781Z" fill="url(#paint11_linear_261_8754)"/>
<path d="M320.682 318.884L319.434 326.287C319.055 328.537 320.904 330.519 323.178 330.333C327.996 329.938 335.293 330.459 338.157 336.533C338.91 338.13 339.064 339.947 338.642 341.661L337.955 344.452C337.955 344.452 351.396 340.023 345.044 324.796C340.055 312.839 328.094 314.739 323.187 316.107C321.883 316.47 320.907 317.55 320.682 318.884Z" fill="url(#paint12_linear_261_8754)"/>
<path d="M376.316 280.353L346.45 305.407C342.244 308.934 341.45 315.099 344.623 319.577C348.235 324.675 355.463 325.531 360.165 321.417L389.564 295.699L376.316 280.353Z" fill="url(#paint13_linear_261_8754)"/>
<path d="M384.417 297.178C375.811 297.178 368.835 290.201 368.835 281.595C368.835 272.989 375.811 266.012 384.417 266.012C393.023 266.012 400 272.989 400 281.595C400 290.201 393.023 297.178 384.417 297.178Z" fill="url(#paint14_linear_261_8754)"/>
<ellipse cx="244.171" cy="397.669" rx="48.8344" ry="4.78528" fill="#323232"/>
<defs>
<linearGradient id="paint0_linear_261_8754" x1="239.248" y1="-191.147" x2="235.487" y2="688.694" gradientUnits="userSpaceOnUse">
<stop stop-color="#FFD57C"/>
<stop offset="0.9964" stop-color="#F89B2A"/>
</linearGradient>
<linearGradient id="paint1_linear_261_8754" x1="237.5" y1="169.529" x2="236.977" y2="291.925" gradientUnits="userSpaceOnUse">
<stop stop-color="#FFB643"/>
<stop offset="0.9964" stop-color="#F47A53"/>
</linearGradient>
<linearGradient id="paint2_linear_261_8754" x1="392.933" y1="103.108" x2="313.432" y2="103.108" gradientUnits="userSpaceOnUse">
<stop stop-color="#F58052"/>
<stop offset="0.9964" stop-color="#26264F"/>
</linearGradient>
<linearGradient id="paint3_linear_261_8754" x1="381.785" y1="114.566" x2="102.14" y2="114.566" gradientUnits="userSpaceOnUse">
<stop stop-color="#FFD57C"/>
<stop offset="0.9964" stop-color="#FBAA49"/>
</linearGradient>
<linearGradient id="paint4_linear_261_8754" x1="190.023" y1="125.982" x2="363.36" y2="125.982" gradientUnits="userSpaceOnUse">
<stop stop-color="#333669"/>
<stop offset="0.0001" stop-color="#272751"/>
<stop offset="0.9964" stop-color="#4C4C6D"/>
</linearGradient>
<linearGradient id="paint5_linear_261_8754" x1="160.973" y1="123.055" x2="81.4729" y2="123.055" gradientUnits="userSpaceOnUse">
<stop stop-color="#F47754"/>
<stop offset="0.9964" stop-color="#FEBF45"/>
</linearGradient>
<linearGradient id="paint6_linear_261_8754" x1="44.3752" y1="218.714" x2="135.245" y2="271.463" gradientUnits="userSpaceOnUse">
<stop stop-color="#FCB148"/>
<stop offset="0.0521" stop-color="#FDBA46"/>
<stop offset="0.1424" stop-color="#FFC244"/>
<stop offset="0.3183" stop-color="#FFC444"/>
<stop offset="0.4849" stop-color="#FDB946"/>
<stop offset="0.7754" stop-color="#F99C4D"/>
<stop offset="0.8658" stop-color="#F8924F"/>
<stop offset="1" stop-color="#F8924F"/>
</linearGradient>
<linearGradient id="paint7_linear_261_8754" x1="38.5996" y1="230.811" x2="115.277" y2="275.321" gradientUnits="userSpaceOnUse">
<stop stop-color="#FCB148"/>
<stop offset="0.0521" stop-color="#FDBA46"/>
<stop offset="0.1424" stop-color="#FFC244"/>
<stop offset="0.3183" stop-color="#FFC444"/>
<stop offset="0.4849" stop-color="#FDB946"/>
<stop offset="0.7754" stop-color="#F99C4D"/>
<stop offset="0.8658" stop-color="#F8924F"/>
<stop offset="1" stop-color="#F8924F"/>
</linearGradient>
<linearGradient id="paint8_linear_261_8754" x1="73.6977" y1="234.156" x2="66.7489" y2="298.684" gradientUnits="userSpaceOnUse">
<stop stop-color="#444B8C"/>
<stop offset="0.9964" stop-color="#26264F"/>
</linearGradient>
<linearGradient id="paint9_linear_261_8754" x1="19.6685" y1="185.428" x2="37.1372" y2="195.6" gradientUnits="userSpaceOnUse">
<stop stop-color="#444B8C"/>
<stop offset="0.9964" stop-color="#26264F"/>
</linearGradient>
<linearGradient id="paint10_linear_261_8754" x1="38.3927" y1="194.103" x2="0.00032928" y2="194.103" gradientUnits="userSpaceOnUse">
<stop stop-color="#444B8C"/>
<stop offset="0.9964" stop-color="#26264F"/>
</linearGradient>
<linearGradient id="paint11_linear_261_8754" x1="389.03" y1="259.533" x2="329.251" y2="271.747" gradientUnits="userSpaceOnUse">
<stop stop-color="#FCB148"/>
<stop offset="0.0521" stop-color="#FDBA46"/>
<stop offset="0.1424" stop-color="#FFC244"/>
<stop offset="0.3183" stop-color="#FFC444"/>
<stop offset="0.4849" stop-color="#FDB946"/>
<stop offset="0.7754" stop-color="#F99C4D"/>
<stop offset="0.8658" stop-color="#F8924F"/>
<stop offset="1" stop-color="#F8924F"/>
</linearGradient>
<linearGradient id="paint12_linear_261_8754" x1="341.846" y1="319.69" x2="326.228" y2="335.189" gradientUnits="userSpaceOnUse">
<stop stop-color="#444B8C"/>
<stop offset="0.9964" stop-color="#26264F"/>
</linearGradient>
<linearGradient id="paint13_linear_261_8754" x1="369.214" y1="279.467" x2="363.49" y2="325.386" gradientUnits="userSpaceOnUse">
<stop stop-color="#FCB148"/>
<stop offset="0.0521" stop-color="#FDBA46"/>
<stop offset="0.1424" stop-color="#FFC244"/>
<stop offset="0.3183" stop-color="#FFC444"/>
<stop offset="0.4849" stop-color="#FDB946"/>
<stop offset="0.7754" stop-color="#F99C4D"/>
<stop offset="0.8658" stop-color="#F8924F"/>
<stop offset="1" stop-color="#F8924F"/>
</linearGradient>
<linearGradient id="paint14_linear_261_8754" x1="386.616" y1="261.176" x2="380.613" y2="316.924" gradientUnits="userSpaceOnUse">
<stop stop-color="#444B8C"/>
<stop offset="0.9964" stop-color="#26264F"/>
</linearGradient>
</defs>
</svg>
